# xmcd CD database file
#
# Track frame offsets:
#	150
#	16148
#	32002
#	45732
#	62596
#	73196
#	88919
#	105478
#	132302
#	148302
#	165443
#
# Disc length: 2449 seconds
#
# Revision: 0
# Processed by: cddbd v1.5.2PL0 Copyright (c) Steve Scherf et al.
# Submitted via: CDex 1.51
#
DISCID=96098f0b
DTITLE=Boogie Boys - Hey You
DYEAR=2009
DGENRE=Blues
TTITLE0=All I Want
TTITLE1=Nothin But The Queen
TTITLE2=BB Are In Town
TTITLE3=I Don't Love Her Anymore
TTITLE4=Hey You
TTITLE5=Bad Trip
TTITLE6=75
TTITLE7=Nobody Knows Me
TTITLE8=Snatch And Grab It
TTITLE9=Something You Got
TTITLE10=Keep The Blues Happy
EXTD=YEAR: 2009
EXTT0=
EXTT1=
EXTT2=
EXTT3=
EXTT4=
EXTT5=
EXTT6=
EXTT7=
EXTT8=
EXTT9=
EXTT10=
PLAYORDER=
